ply
format ascii 1.0
comment Created by Open3D
element vertex 288
property double x
property double y
property double z
property double nx
property double ny
property double nz
element face 172
property list uchar uint vertex_indices
end_header
64 -199 108.546 1.88073e-08 -1 -6.12319e-17
-149 -199 110 3.91684e-09 -1 -6.12322e-17
-64 -199 108.546 1.05698e-08 -1 6.18003e-07
-104 -199 80 1.7675e-08 -1 -8.83753e-08
-64 -199 88 1.15755e-07 -1 -1.83823e-13
104 -199 80 3.24589e-08 -1 -5.15898e-14
64 -199 88 1.10025e-07 -1 5.50127e-07
149 -199 110 1.97794e-09 -1 -1.15647e-07
104 -199 -65 3.46505e-08 -1 5.19758e-08
149 -199 -95 6.24437e-08 -1 2.63733e-14
-104 -199 -65 4.9271e-08 -1 2.07968e-14
-149 -199 -95 4.19465e-08 -1 -6.29197e-08
149 59 88 1 1.04853e-07 1.36714e-07
149 111 80 1 5.36812e-09 3.48929e-08
149 59 107 1 2.33185e-08 -8.10774e-08
149 199 110 1 3.28859e-09 -1.53468e-07
149 -199 110 1 6.63712e-09 -2.3077e-08
149 -111 80 1 1.07112e-08 1.39659e-08
149 -79.8617 88 1 1.19282e-07 -4.64281e-07
149 -79.8617 107 1 1.76415e-08 7.00593e-07
149 199 -95 1 2.79398e-08 -3.4985e-23
149 111 -69 1 3.49696e-08 1.18358e-07
149 -111 -69 1 4.51818e-08 -5.65747e-23
149 -199 -95 1 1.59129e-08 -5.38589e-08
-64 199 88 6.12323e-17 1 6.12323e-17
-104 199 80 6.12323e-17 1 6.12323e-17
-64 199 108.546 6.12323e-17 1 6.12323e-17
-149 199 110 6.12323e-17 1 6.12323e-17
-64 199 108.546 -8.50386e-08 1 -4.98361e-06
-149 199 110 -8.50386e-08 1 -4.98361e-06
149 199 110 -8.50386e-08 1 -4.98361e-06
-64 199 88 -1.98244e-07 1 9.92198e-07
64 199 88 -1.98244e-07 1 9.92198e-07
-104 199 80 -1.98244e-07 1 9.92198e-07
-104 199 80 -1.22042e-07 1 -6.10812e-07
64 199 88 -1.22042e-07 1 -6.10812e-07
104 199 80 -1.22042e-07 1 -6.10812e-07
104 199 80 6.12323e-17 1 6.12323e-17
64 199 88 6.12323e-17 1 6.12323e-17
64 199 108.546 6.12323e-17 1 6.12323e-17
149 199 110 6.12323e-17 1 6.12323e-17
149 199 110 -1.97377e-07 1 1.15992e-05
64 199 108.546 -1.97377e-07 1 1.15992e-05
-64 199 108.546 -1.97377e-07 1 1.15992e-05
-104 199 -65 -3.46505e-08 1 5.19758e-08
-149 199 -95 -6.24437e-08 1 -2.63733e-14
104 199 -65 -4.92709e-08 1 -2.07968e-14
149 199 -95 -4.19465e-08 1 -6.29198e-08
-149 -79.8617 107 -1 6.12323e-17 0
-149 -79.8617 88 -1 6.12323e-17 0
-149 -111 80 -1 6.12323e-17 0
-149 -111 80 -1 -1.82751e-07 7.1222e-07
-149 -79.8617 88 -1 -1.82751e-07 7.1222e-07
-149 59 88 -1 -1.82751e-07 7.1222e-07
-149 -111 80 -1 -1.1435e-07 -7.43839e-07
-149 59 88 -1 -1.1435e-07 -7.43839e-07
-149 111 80 -1 -1.1435e-07 -7.43839e-07
-149 111 80 -1 6.12323e-17 0
-149 59 88 -1 6.12323e-17 0
-149 59 107 -1 6.12323e-17 0
-149 199 110 -1 6.12323e-17 0
-149 199 110 -1 -6.37657e-08 2.97825e-06
-149 59 107 -1 -6.37657e-08 2.97825e-06
-149 -199 110 -1 -6.37657e-08 2.97825e-06
-149 -199 110 -1 -1.82478e-07 -7.26347e-06
-149 59 107 -1 -1.82478e-07 -7.26347e-06
-149 -79.8617 107 -1 -1.82478e-07 -7.26347e-06
-149 -199 110 -1 6.12323e-17 0
-149 -199 -95 -1 -2.79398e-08 1.66371e-23
-149 -111 -69 -1 -3.49696e-08 1.18358e-07
-149 111 -69 -1 -4.51818e-08 2.6904e-23
-149 199 -95 -1 -1.59129e-08 -5.38589e-08
129 179 -95 3.7494e-33 6.12323e-17 -1
149 -199 -95 3.7494e-33 6.12323e-17 -1
129 -179 -95 3.7494e-33 6.12323e-17 -1
-149 -199 -95 3.7494e-33 6.12323e-17 -1
-129 -179 -95 3.7494e-33 6.12323e-17 -1
-129 179 -95 3.7494e-33 6.12323e-17 -1
-149 199 -95 3.7494e-33 6.12323e-17 -1
149 199 -95 3.7494e-33 6.12323e-17 -1
129 -179 110 -3.7494e-33 -6.12323e-17 1
149 -199 110 -3.7494e-33 -6.12323e-17 1
129 179 110 -3.7494e-33 -6.12323e-17 1
149 199 110 -3.7494e-33 -6.12323e-17 1
-149 199 110 -3.7494e-33 -6.12323e-17 1
-129 -179 110 -3.7494e-33 -6.12323e-17 1
-149 -199 110 -3.7494e-33 -6.12323e-17 1
-129 179 110 -3.7494e-33 -6.12323e-17 1
129 179 -95 1 7.09365e-08 4.34361e-24
129 -179 -95 1 7.09431e-08 4.34401e-24
129 179 -110 1 7.09431e-08 4.34401e-24
129 -179 -110 1 7.09365e-08 4.34361e-24
-129 179 -95 -9.84242e-08 1 6.12323e-17
129 179 -95 -9.84369e-08 1 6.12323e-17
-129 179 -110 -9.84369e-08 1 6.12323e-17
129 179 -110 -9.84242e-08 1 6.12323e-17
-129 -179 -95 -1 -7.09365e-08 -4.34361e-24
-129 179 -95 -1 -7.09431e-08 -4.34401e-24
-129 -179 -110 -1 -7.09431e-08 -4.34401e-24
-129 179 -110 -1 -7.09365e-08 -4.34361e-24
129 -179 -95 9.84242e-08 -1 -6.12323e-17
-129 -179 -95 9.84369e-08 -1 -6.12323e-17
129 -179 -110 9.84369e-08 -1 -6.12323e-17
-129 -179 -110 9.84242e-08 -1 -6.12323e-17
129 -179 -110 3.7494e-33 6.12323e-17 -1
-129 -179 -110 3.7494e-33 6.12323e-17 -1
129 179 -110 3.7494e-33 6.12323e-17 -1
-129 179 -110 3.7494e-33 6.12323e-17 -1
149 111 -69 -6.12323e-17 -1 -6.12323e-17
149 111 80 -6.12323e-17 -1 -6.12323e-17
134 111 -69 -6.12323e-17 -1 -6.12323e-17
134 111 80 -6.12323e-17 -1 -6.12323e-17
149 111 80 3.7494e-33 6.12323e-17 -1
149 -111 80 3.7494e-33 6.12323e-17 -1
134 111 80 3.7494e-33 6.12323e-17 -1
134 -111 80 3.7494e-33 6.12323e-17 -1
149 -111 80 6.12323e-17 1 6.12323e-17
149 -111 -69 6.12323e-17 1 6.12323e-17
134 -111 80 6.12323e-17 1 6.12323e-17
134 -111 -69 6.12323e-17 1 6.12323e-17
149 -111 -69 -3.7494e-33 -6.12323e-17 1
149 111 -69 -3.7494e-33 -6.12323e-17 1
134 -111 -69 -3.7494e-33 -6.12323e-17 1
134 111 -69 -3.7494e-33 -6.12323e-17 1
134 111 -69 1 1.14411e-07 7.00565e-24
134 111 80 1 1.14413e-07 7.00576e-24
134 -111 -69 1 1.14413e-07 7.00576e-24
134 -111 80 1 1.14411e-07 7.00565e-24
-149 -111 -69 6.12323e-17 1 6.12323e-17
-149 -111 80 6.12323e-17 1 6.12323e-17
-134 -111 -69 6.12323e-17 1 6.12323e-17
-134 -111 80 6.12323e-17 1 6.12323e-17
-149 -111 80 3.7494e-33 6.12323e-17 -1
-149 111 80 3.7494e-33 6.12323e-17 -1
-134 -111 80 3.7494e-33 6.12323e-17 -1
-134 111 80 3.7494e-33 6.12323e-17 -1
-149 111 80 -6.12323e-17 -1 -6.12323e-17
-149 111 -69 -6.12323e-17 -1 -6.12323e-17
-134 111 80 -6.12323e-17 -1 -6.12323e-17
-134 111 -69 -6.12323e-17 -1 -6.12323e-17
-149 111 -69 -3.7494e-33 -6.12323e-17 1
-149 -111 -69 -3.7494e-33 -6.12323e-17 1
-134 111 -69 -3.7494e-33 -6.12323e-17 1
-134 -111 -69 -3.7494e-33 -6.12323e-17 1
-134 -111 -69 -1 -1.14411e-07 -7.00565e-24
-134 -111 80 -1 -1.14413e-07 -7.00576e-24
-134 111 -69 -1 -1.14413e-07 -7.00576e-24
-134 111 80 -1 -1.14411e-07 -7.00565e-24
104 -199 -65 -1 6.12323e-17 0
104 -199 80 -1 6.12323e-17 0
104 -186 -65 -1 6.12323e-17 0
104 -186 80 -1 6.12323e-17 0
104 -199 80 3.7494e-33 6.12323e-17 -1
-104 -199 80 3.7494e-33 6.12323e-17 -1
104 -186 80 3.7494e-33 6.12323e-17 -1
-104 -186 80 3.7494e-33 6.12323e-17 -1
-104 -199 80 1 -6.12323e-17 0
-104 -199 -65 1 -6.12323e-17 0
-104 -186 80 1 -6.12323e-17 0
-104 -186 -65 1 -6.12323e-17 0
-104 -199 -65 -3.7494e-33 -6.12323e-17 1
104 -199 -65 -3.7494e-33 -6.12323e-17 1
-104 -186 -65 -3.7494e-33 -6.12323e-17 1
104 -186 -65 -3.7494e-33 -6.12323e-17 1
-104 -186 -65 1.22111e-07 -1 -6.12323e-17
104 -186 -65 1.22113e-07 -1 -6.12323e-17
-104 -186 80 1.22113e-07 -1 -6.12323e-17
104 -186 80 1.22111e-07 -1 -6.12323e-17
-104 199 80 3.7494e-33 6.12323e-17 -1
104 199 80 3.7494e-33 6.12323e-17 -1
-104 186 80 3.7494e-33 6.12323e-17 -1
104 186 80 3.7494e-33 6.12323e-17 -1
104 199 80 -1 6.12323e-17 0
104 199 -65 -1 6.12323e-17 0
104 186 80 -1 6.12323e-17 0
104 186 -65 -1 6.12323e-17 0
104 199 -65 -3.7494e-33 -6.12323e-17 1
-104 199 -65 -3.7494e-33 -6.12323e-17 1
104 186 -65 -3.7494e-33 -6.12323e-17 1
-104 186 -65 -3.7494e-33 -6.12323e-17 1
-104 199 -65 1 -6.12323e-17 0
-104 199 80 1 -6.12323e-17 0
-104 186 -65 1 -6.12323e-17 0
-104 186 80 1 -6.12323e-17 0
-104 186 80 -1.22111e-07 1 6.12323e-17
104 186 80 -1.22113e-07 1 6.12323e-17
-104 186 -65 -1.22113e-07 1 6.12323e-17
104 186 -65 -1.22111e-07 1 6.12323e-17
149 59 88 -6.12323e-17 -1 -6.12323e-17
149 59 107 -6.12323e-17 -1 -6.12323e-17
134 59 88 -6.12323e-17 -1 -6.12323e-17
134 59 107 -6.12323e-17 -1 -6.12323e-17
149 59 107 3.7494e-33 6.12323e-17 -1
149 -79.8617 107 3.7494e-33 6.12323e-17 -1
134 59 107 3.7494e-33 6.12323e-17 -1
134 -79.8617 107 3.7494e-33 6.12323e-17 -1
149 -79.8617 107 6.12323e-17 1 6.12323e-17
149 -79.8617 88 6.12323e-17 1 6.12323e-17
134 -79.8617 107 6.12323e-17 1 6.12323e-17
134 -79.8617 88 6.12323e-17 1 6.12323e-17
149 -79.8617 88 -3.7494e-33 -6.12323e-17 1
149 59 88 -3.7494e-33 -6.12323e-17 1
134 -79.8617 88 -3.7494e-33 -6.12323e-17 1
134 59 88 -3.7494e-33 -6.12323e-17 1
134 59 88 1 1.82846e-07 1.11961e-23
134 59 107 1 1.82881e-07 1.11982e-23
134 -79.8617 88 1 1.82881e-07 1.11982e-23
134 -79.8617 107 1 1.82846e-07 1.11961e-23
-64 199 88 1 -6.12323e-17 0
-64 199 108.546 1 -6.12323e-17 0
-64 186 88 1 -6.12323e-17 0
-64 186 108.546 1 -6.12323e-17 0
-64 199 108.546 3.7494e-33 6.12323e-17 -1
64 199 108.546 3.7494e-33 6.12323e-17 -1
-64 186 108.546 3.7494e-33 6.12323e-17 -1
64 186 108.546 3.7494e-33 6.12323e-17 -1
64 199 108.546 -1 6.12323e-17 0
64 199 88 -1 6.12323e-17 0
64 186 108.546 -1 6.12323e-17 0
64 186 88 -1 6.12323e-17 0
64 199 88 -3.7494e-33 -6.12323e-17 1
-64 199 88 -3.7494e-33 -6.12323e-17 1
64 186 88 -3.7494e-33 -6.12323e-17 1
-64 186 88 -3.7494e-33 -6.12323e-17 1
64 186 88 -1.98362e-07 1 6.12323e-17
-64 186 88 -1.984e-07 1 6.12323e-17
64 186 108.546 -1.984e-07 1 6.12323e-17
-64 186 108.546 -1.98362e-07 1 6.12323e-17
-149 59 88 -3.7494e-33 -6.12323e-17 1
-149 -79.8617 88 -3.7494e-33 -6.12323e-17 1
-134 59 88 -3.7494e-33 -6.12323e-17 1
-134 -79.8617 88 -3.7494e-33 -6.12323e-17 1
-149 -79.8617 88 6.12323e-17 1 6.12323e-17
-149 -79.8617 107 6.12323e-17 1 6.12323e-17
-134 -79.8617 88 6.12323e-17 1 6.12323e-17
-134 -79.8617 107 6.12323e-17 1 6.12323e-17
-149 -79.8617 107 3.7494e-33 6.12323e-17 -1
-149 59 107 3.7494e-33 6.12323e-17 -1
-134 -79.8617 107 3.7494e-33 6.12323e-17 -1
-134 59 107 3.7494e-33 6.12323e-17 -1
-149 59 107 -6.12323e-17 -1 -6.12323e-17
-149 59 88 -6.12323e-17 -1 -6.12323e-17
-134 59 107 -6.12323e-17 -1 -6.12323e-17
-134 59 88 -6.12323e-17 -1 -6.12323e-17
-134 59 107 -1 -1.82846e-07 -1.11961e-23
-134 59 88 -1 -1.82881e-07 -1.11982e-23
-134 -79.8617 107 -1 -1.82881e-07 -1.11982e-23
-134 -79.8617 88 -1 -1.82846e-07 -1.11961e-23
64 -199 108.546 3.7494e-33 6.12323e-17 -1
-64 -199 108.546 3.7494e-33 6.12323e-17 -1
64 -186 108.546 3.7494e-33 6.12323e-17 -1
-64 -186 108.546 3.7494e-33 6.12323e-17 -1
-64 -199 108.546 1 -6.12323e-17 0
-64 -199 88 1 -6.12323e-17 0
-64 -186 108.546 1 -6.12323e-17 0
-64 -186 88 1 -6.12323e-17 0
-64 -199 88 -3.7494e-33 -6.12323e-17 1
64 -199 88 -3.7494e-33 -6.12323e-17 1
-64 -186 88 -3.7494e-33 -6.12323e-17 1
64 -186 88 -3.7494e-33 -6.12323e-17 1
64 -199 88 -1 6.12323e-17 0
64 -199 108.546 -1 6.12323e-17 0
64 -186 88 -1 6.12323e-17 0
64 -186 108.546 -1 6.12323e-17 0
64 -186 108.546 1.98362e-07 -1 -6.12323e-17
-64 -186 108.546 1.984e-07 -1 -6.12323e-17
64 -186 88 1.984e-07 -1 -6.12323e-17
-64 -186 88 1.98362e-07 -1 -6.12323e-17
129 -179 110 -1 -7.09487e-08 -4.34436e-24
129 179 110 -1 -7.09492e-08 -4.34439e-24
129 -179 -90 -1 -7.09492e-08 -4.34439e-24
129 179 -90 -1 -7.09487e-08 -4.34436e-24
129 179 110 9.84477e-08 -1 -6.12323e-17
-129 179 110 9.84487e-08 -1 -6.12323e-17
129 179 -90 9.84487e-08 -1 -6.12323e-17
-129 179 -90 9.84477e-08 -1 -6.12323e-17
-129 179 110 1 7.09487e-08 4.34436e-24
-129 -179 110 1 7.09492e-08 4.34439e-24
-129 179 -90 1 7.09492e-08 4.34439e-24
-129 -179 -90 1 7.09487e-08 4.34436e-24
-129 -179 110 -9.84477e-08 1 6.12323e-17
129 -179 110 -9.84487e-08 1 6.12323e-17
-129 -179 -90 -9.84487e-08 1 6.12323e-17
129 -179 -90 -9.84477e-08 1 6.12323e-17
-129 -179 -90 -3.7494e-33 -6.12323e-17 1
129 -179 -90 -3.7494e-33 -6.12323e-17 1
-129 179 -90 -3.7494e-33 -6.12323e-17 1
129 179 -90 -3.7494e-33 -6.12323e-17 1
3 0 1 2
3 2 1 3
3 2 3 4
3 4 3 5
3 4 5 6
3 5 0 6
3 0 5 7
3 0 7 1
3 5 8 7
3 7 8 9
3 9 8 10
3 9 10 11
3 11 10 1
3 1 10 3
3 12 13 14
3 14 13 15
3 14 15 16
3 13 12 17
3 17 12 18
3 17 18 19
3 17 19 16
3 16 19 14
3 15 13 20
3 20 13 21
3 20 21 22
3 20 22 23
3 23 22 17
3 23 17 16
3 24 25 26
3 26 25 27
3 28 29 30
3 31 32 33
3 34 35 36
3 37 38 39
3 37 39 40
3 41 42 43
3 25 44 27
3 27 44 45
3 45 44 46
3 45 46 47
3 47 46 40
3 40 46 37
3 48 49 50
3 51 52 53
3 54 55 56
3 57 58 59
3 57 59 60
3 61 62 63
3 64 65 66
3 67 48 50
3 67 50 68
3 68 50 69
3 68 69 70
3 68 70 71
3 71 70 57
3 71 57 60
3 72 73 74
3 74 73 75
3 74 75 76
3 76 75 77
3 77 75 78
3 77 78 79
3 73 72 79
3 79 72 77
3 80 81 82
3 82 81 83
3 82 83 84
3 80 85 81
3 81 85 86
3 86 85 87
3 86 87 84
3 84 87 82
3 88 89 90
3 90 89 91
3 92 93 94
3 94 93 95
3 96 97 98
3 98 97 99
3 100 101 102
3 102 101 103
3 104 105 106
3 106 105 107
3 108 109 110
3 110 109 111
3 112 113 114
3 114 113 115
3 116 117 118
3 118 117 119
3 120 121 122
3 122 121 123
3 124 125 126
3 126 125 127
3 128 129 130
3 130 129 131
3 132 133 134
3 134 133 135
3 136 137 138
3 138 137 139
3 140 141 142
3 142 141 143
3 144 145 146
3 146 145 147
3 148 149 150
3 150 149 151
3 152 153 154
3 154 153 155
3 156 157 158
3 158 157 159
3 160 161 162
3 162 161 163
3 164 165 166
3 166 165 167
3 168 169 170
3 170 169 171
3 172 173 174
3 174 173 175
3 176 177 178
3 178 177 179
3 180 181 182
3 182 181 183
3 184 185 186
3 186 185 187
3 188 189 190
3 190 189 191
3 192 193 194
3 194 193 195
3 196 197 198
3 198 197 199
3 200 201 202
3 202 201 203
3 204 205 206
3 206 205 207
3 208 209 210
3 210 209 211
3 212 213 214
3 214 213 215
3 216 217 218
3 218 217 219
3 220 221 222
3 222 221 223
3 224 225 226
3 226 225 227
3 228 229 230
3 230 229 231
3 232 233 234
3 234 233 235
3 236 237 238
3 238 237 239
3 240 241 242
3 242 241 243
3 244 245 246
3 246 245 247
3 248 249 250
3 250 249 251
3 252 253 254
3 254 253 255
3 256 257 258
3 258 257 259
3 260 261 262
3 262 261 263
3 264 265 266
3 266 265 267
3 268 269 270
3 270 269 271
3 272 273 274
3 274 273 275
3 276 277 278
3 278 277 279
3 280 281 282
3 282 281 283
3 284 285 286
3 286 285 287
