ply
format ascii 1.0
comment Created by Open3D
element vertex 424
property double x
property double y
property double z
property double nx
property double ny
property double nz
element face 240
property list uchar uint vertex_indices
end_header
-255 -600 72 1 0 -0
-255 -600 50 1 0 -0
-255 600 72 1 0 -0
-255 600 50 1 0 -0
-400 -600 72 0 -0 1
-255 -600 72 0 -0 1
-400 600 72 0 -0 1
-255 600 72 0 -0 1
-400 -600 50 -1 -0 -0
-400 -600 72 -1 -0 -0
-400 600 50 -1 -0 -0
-400 600 72 -1 0 -0
-255 -600 50 0 0 -1
-400 -600 50 0 0 -1
-255 600 50 0 0 -1
-400 600 50 0 0 -1
-400 -600 72 -0 -1 0
-400 -600 50 -0 -1 0
-255 -600 72 -0 -1 0
-255 -600 50 0 -1 0
-400 600 50 0 1 0
-400 600 72 0 1 0
-255 600 50 0 1 0
-255 600 72 0 1 0
400 -600 -50 1 0 -0
400 -600 -72 1 0 -0
400 600 -50 1 0 -0
400 600 -72 1 0 -0
300 -600 -50 0 -0 1
400 -600 -50 0 -0 1
300 600 -50 0 -0 1
400 600 -50 0 -0 1
300 -600 -72 -1 -0 -0
300 -600 -50 -1 -0 -0
300 600 -72 -1 -0 -0
300 600 -50 -1 0 -0
400 -600 -72 0 0 -1
300 -600 -72 0 0 -1
400 600 -72 0 0 -1
300 600 -72 0 0 -1
300 -600 -50 -0 -1 0
300 -600 -72 -0 -1 0
400 -600 -50 -0 -1 0
400 -600 -72 0 -1 0
300 600 -72 0 1 0
300 600 -50 0 1 0
400 600 -72 0 1 0
400 600 -50 0 1 0
-400 -600 -72 -1 -0 -0
-400 -600 -50 -1 -0 -0
-400 600 -72 -1 -0 -0
-400 600 -50 -1 0 -0
-300 -600 -72 0 0 -1
-400 -600 -72 0 0 -1
-300 600 -72 0 0 -1
-400 600 -72 0 0 -1
-300 -600 -50 1 0 -0
-300 -600 -72 1 0 -0
-300 600 -50 1 0 -0
-300 600 -72 1 0 -0
-400 -600 -50 0 -0 1
-300 -600 -50 0 -0 1
-400 600 -50 0 -0 1
-300 600 -50 0 -0 1
-300 -600 -72 0 -1 0
-300 -600 -50 0 -1 0
-400 -600 -72 0 -1 0
-400 -600 -50 0 -1 -0
-300 600 -50 -0 1 0
-300 600 -72 -0 1 0
-400 600 -50 -0 1 0
-400 600 -72 0 1 -0
400 -600 72 1 0 -0
400 -600 50 1 0 -0
400 600 72 1 0 -0
400 600 50 1 0 -0
255 -600 72 0 -0 1
400 -600 72 0 -0 1
255 600 72 0 -0 1
400 600 72 0 -0 1
255 -600 50 -1 -0 -0
255 -600 72 -1 -0 -0
255 600 50 -1 -0 -0
255 600 72 -1 0 -0
400 -600 50 0 0 -1
255 -600 50 0 0 -1
400 600 50 0 0 -1
255 600 50 0 0 -1
255 -600 72 -0 -1 0
255 -600 50 -0 -1 0
400 -600 72 -0 -1 0
400 -600 50 0 -1 0
255 600 50 0 1 0
255 600 72 0 1 0
400 600 50 0 1 0
400 600 72 0 1 0
-212.5 -600 50 -1 -0 -0
-212.5 -600 72 -1 -0 -0
-212.5 600 50 -1 -0 -0
-212.5 600 72 -1 0 -0
-112.5 -600 50 0 0 -1
-212.5 -600 50 0 0 -1
-112.5 600 50 0 0 -1
-212.5 600 50 0 0 -1
-112.5 -600 72 1 0 -0
-112.5 -600 50 1 0 -0
-112.5 600 72 1 0 -0
-112.5 600 50 1 0 -0
-212.5 -600 72 0 -0 1
-112.5 -600 72 0 -0 1
-212.5 600 72 0 -0 1
-112.5 600 72 0 -0 1
-112.5 -600 50 0 -1 0
-112.5 -600 72 0 -1 0
-212.5 -600 50 0 -1 0
-212.5 -600 72 0 -1 -0
-112.5 600 72 -0 1 0
-112.5 600 50 -0 1 0
-212.5 600 72 -0 1 0
-212.5 600 50 0 1 -0
-72.5 -600 50 -1 -0 -0
-72.5 -600 72 -1 -0 -0
-72.5 600 50 -1 -0 -0
-72.5 600 72 -1 0 -0
72.5 -600 50 0 0 -1
-72.5 -600 50 0 0 -1
72.5 600 50 0 0 -1
-72.5 600 50 0 0 -1
72.5 -600 72 1 0 -0
72.5 -600 50 1 0 -0
72.5 600 72 1 0 -0
72.5 600 50 1 0 -0
-72.5 -600 72 0 -0 1
72.5 -600 72 0 -0 1
-72.5 600 72 0 -0 1
72.5 600 72 0 -0 1
72.5 -600 50 0 -1 0
72.5 -600 72 0 -1 0
-72.5 -600 50 0 -1 0
-72.5 -600 72 0 -1 -0
72.5 600 72 -0 1 0
72.5 600 50 -0 1 0
-72.5 600 72 -0 1 0
-72.5 600 50 0 1 -0
112.5 -600 50 -1 -0 -0
112.5 -600 72 -1 -0 -0
112.5 600 50 -1 -0 -0
112.5 600 72 -1 0 -0
212.5 -600 50 0 0 -1
112.5 -600 50 0 0 -1
212.5 600 50 0 0 -1
112.5 600 50 0 0 -1
212.5 -600 72 1 0 -0
212.5 -600 50 1 0 -0
212.5 600 72 1 0 -0
212.5 600 50 1 0 -0
112.5 -600 72 0 -0 1
212.5 -600 72 0 -0 1
112.5 600 72 0 -0 1
212.5 600 72 0 -0 1
212.5 -600 50 0 -1 0
212.5 -600 72 0 -1 0
112.5 -600 50 0 -1 0
112.5 -600 72 0 -1 -0
212.5 600 72 -0 1 0
212.5 600 50 -0 1 0
112.5 600 72 -0 1 0
112.5 600 50 0 1 -0
400 600 28 -0 1 0
-400 600 28 0 1 -0
400 455 50 0 -0 1
400 600 50 0 -0 1
-400 455 50 0 -0 1
-400 600 50 0 -0 1
400 455 28 0 -1 0
400 455 50 0 -1 0
-400 455 28 0 -1 0
-400 455 50 0 -1 -0
400 600 28 0 0 -1
400 455 28 0 0 -1
-400 600 28 0 0 -1
-400 455 28 0 0 -1
400 455 50 1 0 -0
400 455 28 1 0 -0
400 600 28 1 0 -0
-400 455 28 -1 -0 -0
-400 455 50 -1 -0 -0
-400 600 28 -1 -0 -0
400 -600 28 0 -1 0
-400 -600 28 0 -1 0
400 -455 28 0 0 -1
400 -600 28 0 0 -1
-400 -455 28 0 0 -1
-400 -600 28 0 0 -1
400 -455 50 -0 1 0
400 -455 28 -0 1 0
-400 -455 50 -0 1 0
-400 -455 28 0 1 -0
400 -600 50 0 -0 1
400 -455 50 0 -0 1
-400 -600 50 0 -0 1
-400 -455 50 0 -0 1
400 -455 28 1 -0 0
400 -455 50 1 -0 0
400 -600 28 1 -0 0
-400 -455 50 -1 0 0
-400 -455 28 -1 0 0
-400 -600 28 -1 0 0
400 -72.5 28 0 -1 0
400 -72.5 50 0 -1 0
-400 -72.5 28 0 -1 0
-400 -72.5 50 0 -1 -0
400 72.5 28 0 0 -1
400 -72.5 28 0 0 -1
-400 72.5 28 0 0 -1
-400 -72.5 28 0 0 -1
400 72.5 50 -0 1 0
400 72.5 28 -0 1 0
-400 72.5 50 -0 1 0
-400 72.5 28 0 1 -0
400 -72.5 50 0 -0 1
400 72.5 50 0 -0 1
-400 -72.5 50 0 -0 1
-400 72.5 50 0 -0 1
400 72.5 28 1 -0 0
400 72.5 50 1 -0 0
400 -72.5 28 1 -0 0
400 -72.5 50 1 -0 0
-400 72.5 50 -1 0 0
-400 72.5 28 -1 0 0
-400 -72.5 50 -1 0 0
-400 -72.5 28 -1 0 0
-400 -455 28 0 -0 1
-400 -600 28 0 -0 1
-300 -455 28 0 -0 1
-300 -600 28 0 -0 1
-300 -600 28 -0 -1 0
-400 -455 -50 -1 0 0
-300 -455 -50 0 0 -1
-300 -600 -50 0 0 -1
-400 -455 -50 0 0 -1
-400 -600 -50 0 0 -1
-300 -455 -50 1 0 0
-300 -600 28 1 0 0
-300 -455 28 1 0 0
-300 -455 -50 -0 1 0
-400 -455 -50 -0 1 0
-300 -455 28 -0 1 0
-400 72.5 28 0 -0 1
-400 -72.5 28 0 -0 1
-300 72.5 28 0 -0 1
-300 -72.5 28 0 -0 1
-400 -72.5 -50 -0 -1 0
-300 -72.5 28 -0 -1 0
-300 -72.5 -50 0 -1 0
-400 72.5 -50 -1 0 0
-400 -72.5 -50 -1 0 0
-300 72.5 -50 0 0 -1
-300 -72.5 -50 0 0 -1
-400 72.5 -50 0 0 -1
-400 -72.5 -50 0 0 -1
-300 -72.5 -50 1 0 0
-300 72.5 -50 1 0 0
-300 -72.5 28 1 0 0
-300 72.5 28 1 0 0
-300 72.5 -50 -0 1 0
-400 72.5 -50 -0 1 0
-300 72.5 28 -0 1 0
-400 600 28 0 -0 1
-400 455 28 0 -0 1
-300 600 28 0 -0 1
-300 455 28 0 -0 1
-400 455 -50 -0 -1 -0
-300 455 -50 -0 -1 -0
-300 455 28 -0 -1 -0
-400 455 -50 -1 0 0
-300 600 -50 0 0 -1
-300 455 -50 0 0 -1
-400 600 -50 0 0 -1
-400 455 -50 0 0 -1
-300 455 -50 1 0 0
-300 455 28 1 0 0
-300 600 28 1 0 0
-300 600 28 -0 1 0
400 455 28 0 -0 1
400 600 28 0 -0 1
300 455 28 0 -0 1
300 600 28 0 -0 1
300 600 28 -0 1 0
400 455 -50 1 0 0
300 455 -50 0 0 -1
300 600 -50 0 0 -1
400 455 -50 0 0 -1
400 600 -50 0 0 -1
300 455 -50 -1 0 -0
300 600 28 -1 0 -0
300 455 28 -1 0 0
300 455 -50 -0 -1 -0
400 455 -50 -0 -1 -0
300 455 28 -0 -1 -0
400 -600 28 0 -0 1
400 -455 28 0 -0 1
300 -600 28 0 -0 1
300 -455 28 0 -0 1
400 -455 -50 -0 1 0
300 -455 -50 -0 1 0
300 -455 28 -0 1 0
300 -600 -50 0 0 -1
300 -455 -50 0 0 -1
400 -600 -50 0 0 -1
400 -455 -50 0 0 -1
300 -455 -50 -1 0 -0
300 -455 28 -1 0 -0
300 -600 28 -1 0 0
400 -455 -50 1 0 0
300 -600 28 -0 -1 0
400 -72.5 28 0 -0 1
400 72.5 28 0 -0 1
300 -72.5 28 0 -0 1
300 72.5 28 0 -0 1
400 72.5 -50 -0 1 0
300 72.5 -50 -0 1 0
300 72.5 28 -0 1 0
300 -72.5 -50 0 0 -1
300 72.5 -50 0 0 -1
400 -72.5 -50 0 0 -1
400 72.5 -50 0 0 -1
300 72.5 -50 -1 0 -0
300 -72.5 -50 -1 0 -0
300 72.5 28 -1 0 -0
300 -72.5 28 -1 0 0
400 -72.5 -50 1 0 0
400 72.5 -50 1 0 0
300 -72.5 28 -0 -1 0
300 -72.5 -50 -0 -1 0
400 -72.5 -50 0 -1 0
72.5 -600 28 0 -0 1
72.5 -455 28 0 -0 1
-72.5 -600 28 0 -0 1
-72.5 -455 28 0 -0 1
-72.5 -600 28 -0 -1 0
-72.5 -600 -50 -0 -1 0
72.5 -600 28 -0 -1 0
72.5 -600 -50 0 -1 0
-72.5 -455 -50 -1 0 -0
-72.5 -600 -50 -1 0 -0
-72.5 -455 28 -1 0 -0
-72.5 -600 28 -1 0 0
72.5 -455 -50 0 0 -1
72.5 -600 -50 0 0 -1
-72.5 -455 -50 0 0 -1
-72.5 -600 -50 0 0 -1
72.5 -600 -50 1 0 0
72.5 -455 -50 1 0 0
72.5 -600 28 1 0 0
72.5 -455 28 1 0 0
72.5 -455 -50 -0 1 0
-72.5 -455 -50 -0 1 0
72.5 -455 28 -0 1 0
-72.5 -455 28 -0 1 0
72.5 -72.5 28 0 -0 1
72.5 72.5 28 0 -0 1
-72.5 -72.5 28 0 -0 1
-72.5 72.5 28 0 -0 1
-72.5 -72.5 28 -0 -1 0
-72.5 -72.5 -50 -0 -1 0
72.5 -72.5 28 -0 -1 0
72.5 -72.5 -50 0 -1 0
-72.5 72.5 -50 -1 0 -0
-72.5 -72.5 -50 -1 0 -0
-72.5 72.5 28 -1 0 -0
-72.5 -72.5 28 -1 0 0
72.5 72.5 -50 0 0 -1
72.5 -72.5 -50 0 0 -1
-72.5 72.5 -50 0 0 -1
-72.5 -72.5 -50 0 0 -1
72.5 -72.5 -50 1 0 0
72.5 72.5 -50 1 0 0
72.5 -72.5 28 1 0 0
72.5 72.5 28 1 0 0
72.5 72.5 -50 -0 1 0
-72.5 72.5 -50 -0 1 0
72.5 72.5 28 -0 1 0
-72.5 72.5 28 -0 1 0
72.5 455 28 0 -0 1
72.5 600 28 0 -0 1
-72.5 455 28 0 -0 1
-72.5 600 28 0 -0 1
-72.5 455 -50 -0 -1 -0
72.5 455 -50 -0 -1 -0
-72.5 455 28 -0 -1 -0
72.5 455 28 -0 -1 -0
-72.5 600 -50 -1 0 -0
-72.5 455 -50 -1 0 -0
-72.5 600 28 -1 0 -0
-72.5 455 28 -1 0 0
72.5 600 -50 0 0 -1
72.5 455 -50 0 0 -1
-72.5 600 -50 0 0 -1
-72.5 455 -50 0 0 -1
72.5 455 -50 1 0 0
72.5 600 -50 1 0 0
72.5 455 28 1 0 0
72.5 600 28 1 0 0
72.5 600 -50 -0 1 0
-72.5 600 -50 -0 1 0
72.5 600 28 -0 1 0
-72.5 600 28 -0 1 0
-72.5 -600 -72 -1 -0 -0
-72.5 600 -72 -1 -0 -0
72.5 -600 -72 0 0 -1
-72.5 -600 -72 0 0 -1
72.5 600 -72 0 0 -1
-72.5 600 -72 0 0 -1
72.5 -600 -72 1 0 -0
72.5 600 -72 1 0 -0
-72.5 -600 -50 0 -0 1
72.5 -600 -50 0 -0 1
-72.5 600 -50 0 -0 1
72.5 600 -50 0 -0 1
72.5 -600 -72 0 -1 0
-72.5 -600 -72 0 -1 0
72.5 600 -72 -0 1 0
-72.5 600 -72 0 1 -0
3 0 1 2
3 2 1 3
3 4 5 6
3 6 5 7
3 8 9 10
3 10 9 11
3 12 13 14
3 14 13 15
3 16 17 18
3 18 17 19
3 20 21 22
3 22 21 23
3 24 25 26
3 26 25 27
3 28 29 30
3 30 29 31
3 32 33 34
3 34 33 35
3 36 37 38
3 38 37 39
3 40 41 42
3 42 41 43
3 44 45 46
3 46 45 47
3 48 49 50
3 50 49 51
3 52 53 54
3 54 53 55
3 56 57 58
3 58 57 59
3 60 61 62
3 62 61 63
3 64 65 66
3 66 65 67
3 68 69 70
3 70 69 71
3 72 73 74
3 74 73 75
3 76 77 78
3 78 77 79
3 80 81 82
3 82 81 83
3 84 85 86
3 86 85 87
3 88 89 90
3 90 89 91
3 92 93 94
3 94 93 95
3 96 97 98
3 98 97 99
3 100 101 102
3 102 101 103
3 104 105 106
3 106 105 107
3 108 109 110
3 110 109 111
3 112 113 114
3 114 113 115
3 116 117 118
3 118 117 119
3 120 121 122
3 122 121 123
3 124 125 126
3 126 125 127
3 128 129 130
3 130 129 131
3 132 133 134
3 134 133 135
3 136 137 138
3 138 137 139
3 140 141 142
3 142 141 143
3 144 145 146
3 146 145 147
3 148 149 150
3 150 149 151
3 152 153 154
3 154 153 155
3 156 157 158
3 158 157 159
3 160 161 162
3 162 161 163
3 164 165 166
3 166 165 167
3 94 168 20
3 20 168 169
3 170 171 172
3 172 171 173
3 174 175 176
3 176 175 177
3 178 179 180
3 180 179 181
3 182 183 75
3 75 183 184
3 185 186 187
3 187 186 10
3 188 91 189
3 189 91 17
3 190 191 192
3 192 191 193
3 194 195 196
3 196 195 197
3 198 199 200
3 200 199 201
3 202 203 204
3 204 203 73
3 205 206 8
3 8 206 207
3 208 209 210
3 210 209 211
3 212 213 214
3 214 213 215
3 216 217 218
3 218 217 219
3 220 221 222
3 222 221 223
3 224 225 226
3 226 225 227
3 228 229 230
3 230 229 231
3 232 233 234
3 234 233 235
3 189 67 236
3 236 67 65
3 206 237 207
3 207 237 49
3 238 239 240
3 240 239 241
3 56 242 243
3 243 242 244
3 245 246 247
3 247 246 197
3 248 249 250
3 250 249 251
3 210 252 253
3 253 252 254
3 229 255 231
3 231 255 256
3 257 258 259
3 259 258 260
3 261 262 263
3 263 262 264
3 265 266 267
3 267 266 219
3 268 269 270
3 270 269 271
3 272 273 176
3 176 273 274
3 187 51 185
3 185 51 275
3 276 277 278
3 278 277 279
3 280 58 281
3 281 58 282
3 68 70 283
3 283 70 169
3 284 285 286
3 286 285 287
3 47 45 168
3 168 45 288
3 289 26 183
3 183 26 184
3 290 291 292
3 292 291 293
3 35 294 295
3 295 294 296
3 297 298 299
3 299 298 174
3 300 301 302
3 302 301 303
3 304 305 195
3 195 305 306
3 307 308 309
3 309 308 310
3 311 33 312
3 312 33 313
3 24 314 204
3 204 314 202
3 315 40 188
3 188 40 42
3 316 317 318
3 318 317 319
3 320 321 217
3 217 321 322
3 323 324 325
3 325 324 326
3 327 328 329
3 329 328 330
3 331 332 226
3 226 332 224
3 333 334 208
3 208 334 335
3 336 337 338
3 338 337 339
3 340 341 342
3 342 341 343
3 344 345 346
3 346 345 347
3 348 349 350
3 350 349 351
3 352 353 354
3 354 353 355
3 356 357 358
3 358 357 359
3 360 361 362
3 362 361 363
3 364 365 366
3 366 365 367
3 368 369 370
3 370 369 371
3 372 373 374
3 374 373 375
3 376 377 378
3 378 377 379
3 380 381 382
3 382 381 383
3 384 385 386
3 386 385 387
3 388 389 390
3 390 389 391
3 392 393 394
3 394 393 395
3 396 397 398
3 398 397 399
3 400 401 402
3 402 401 403
3 404 405 406
3 406 405 407
3 408 345 409
3 409 345 392
3 410 411 412
3 412 411 413
3 352 414 401
3 401 414 415
3 416 417 418
3 418 417 419
3 420 343 421
3 421 343 341
3 404 422 405
3 405 422 423
